<?xml version="1.0" encoding="UTF-8" standalone="no"?>
<!DOCTYPE svg PUBLIC "-//W3C//DTD SVG 1.1//EN"
 "http://www.w3.org/Graphics/SVG/1.1/DTD/svg11.dtd">
<!-- Generated by graphviz version 12.2.1 (0)
 -->
<!-- Pages: 1 -->
<svg width="1920pt" height="712pt"
 viewBox="0.00 0.00 1920.07 712.29" xmlns="http://www.w3.org/2000/svg" xmlns:xlink="http://www.w3.org/1999/xlink">
<g id="graph0" class="graph" transform="scale(1 1) rotate(0) translate(20.16 692.13)">
<polygon fill="#ffffff" stroke="none" points="-20.16,20.16 -20.16,-692.13 1899.91,-692.13 1899.91,20.16 -20.16,20.16"/>
<text text-anchor="middle" x="939.88" y="-652.77" font-family="Times,serif" font-size="16.00">Remora Package Dependency Graph (Annotated Pressure Points)</text>
<g id="clust1" class="cluster">
<title>cluster_legend</title>
<path fill="#ffffff" stroke="#d1d5db" stroke-dasharray="5,2" d="M23.12,-333.72C23.12,-333.72 540.38,-333.72 540.38,-333.72 546.38,-333.72 552.38,-339.72 552.38,-345.72 552.38,-345.72 552.38,-463.72 552.38,-463.72 552.38,-469.72 546.38,-475.72 540.38,-475.72 540.38,-475.72 23.12,-475.72 23.12,-475.72 17.12,-475.72 11.12,-469.72 11.12,-463.72 11.12,-463.72 11.12,-345.72 11.12,-345.72 11.12,-339.72 17.12,-333.72 23.12,-333.72"/>
<text text-anchor="middle" x="281.75" y="-460.32" font-family="Times,serif" font-size="12.00">Legend</text>
</g>
<!-- remora.__main__ -->
<g id="node1" class="node">
<title>remora.__main__</title>
<path fill="#f8fafc" stroke="#475569" d="M141.62,-309.72C141.62,-309.72 58.12,-309.72 58.12,-309.72 52.12,-309.72 46.12,-303.72 46.12,-297.72 46.12,-297.72 46.12,-285.72 46.12,-285.72 46.12,-279.72 52.12,-273.72 58.12,-273.72 58.12,-273.72 141.62,-273.72 141.62,-273.72 147.62,-273.72 153.62,-279.72 153.62,-285.72 153.62,-285.72 153.62,-297.72 153.62,-297.72 153.62,-303.72 147.62,-309.72 141.62,-309.72"/>
<text text-anchor="middle" x="99.88" y="-288.02" font-family="Helvetica,sans-Serif" font-size="11.00">remora.__main__</text>
</g>
<!-- remora.cli -->
<g id="node3" class="node">
<title>remora.cli</title>
<path fill="#fee2e2" stroke="#b91c1c" stroke-width="2.1" d="M585.25,-275.72C585.25,-275.72 442.5,-275.72 442.5,-275.72 436.5,-275.72 430.5,-269.72 430.5,-263.72 430.5,-263.72 430.5,-251.72 430.5,-251.72 430.5,-245.72 436.5,-239.72 442.5,-239.72 442.5,-239.72 585.25,-239.72 585.25,-239.72 591.25,-239.72 597.25,-245.72 597.25,-251.72 597.25,-251.72 597.25,-263.72 597.25,-263.72 597.25,-269.72 591.25,-275.72 585.25,-275.72"/>
<text text-anchor="middle" x="513.88" y="-260.77" font-family="Helvetica,sans-Serif" font-size="11.00" fill="#7f1d1d">remora.cli</text>
<text text-anchor="middle" x="513.88" y="-247.27" font-family="Helvetica,sans-Serif" font-size="11.00" fill="#7f1d1d">(in=1, out=17, degree=18)</text>
</g>
<!-- remora.__main__&#45;&gt;remora.cli -->
<g id="edge1" class="edge">
<title>remora.__main__&#45;&gt;remora.cli</title>
<path fill="none" stroke="#94a3b8" d="M153.89,-287.35C221.17,-281.79 338.33,-272.13 420.45,-265.35"/>
<polygon fill="#94a3b8" stroke="#94a3b8" points="420.54,-268.15 428.28,-264.7 420.07,-262.57 420.54,-268.15"/>
<text text-anchor="middle" x="304.25" y="-283.97" font-family="Helvetica,sans-Serif" font-size="10.00">1</text>
</g>
<!-- remora.adapters -->
<g id="node2" class="node">
<title>remora.adapters</title>
<path fill="#f8fafc" stroke="#475569" d="M834.25,-410.72C834.25,-410.72 750,-410.72 750,-410.72 744,-410.72 738,-404.72 738,-398.72 738,-398.72 738,-386.72 738,-386.72 738,-380.72 744,-374.72 750,-374.72 750,-374.72 834.25,-374.72 834.25,-374.72 840.25,-374.72 846.25,-380.72 846.25,-386.72 846.25,-386.72 846.25,-398.72 846.25,-398.72 846.25,-404.72 840.25,-410.72 834.25,-410.72"/>
<text text-anchor="middle" x="792.12" y="-389.02" font-family="Helvetica,sans-Serif" font-size="11.00">remora.adapters</text>
</g>
<!-- remora.service -->
<g id="node10" class="node">
<title>remora.service</title>
<path fill="#fee2e2" stroke="#b91c1c" stroke-width="2.1" d="M1163.88,-416.72C1163.88,-416.72 1021.12,-416.72 1021.12,-416.72 1015.12,-416.72 1009.12,-410.72 1009.12,-404.72 1009.12,-404.72 1009.12,-392.72 1009.12,-392.72 1009.12,-386.72 1015.12,-380.72 1021.12,-380.72 1021.12,-380.72 1163.88,-380.72 1163.88,-380.72 1169.88,-380.72 1175.88,-386.72 1175.88,-392.72 1175.88,-392.72 1175.88,-404.72 1175.88,-404.72 1175.88,-410.72 1169.88,-416.72 1163.88,-416.72"/>
<text text-anchor="middle" x="1092.5" y="-401.77" font-family="Helvetica,sans-Serif" font-size="11.00" fill="#7f1d1d">remora.service</text>
<text text-anchor="middle" x="1092.5" y="-388.27" font-family="Helvetica,sans-Serif" font-size="11.00" fill="#7f1d1d">(in=2, out=23, degree=25)</text>
</g>
<!-- remora.adapters&#45;&gt;remora.service -->
<g id="edge2" class="edge">
<title>remora.adapters&#45;&gt;remora.service</title>
<path fill="none" stroke="#94a3b8" d="M846.47,-393.8C888.76,-394.65 948.87,-395.85 998.97,-396.86"/>
<polygon fill="#94a3b8" stroke="#94a3b8" points="998.63,-399.66 1006.69,-397.02 998.74,-394.06 998.63,-399.66"/>
<text text-anchor="middle" x="937.25" y="-398.88" font-family="Helvetica,sans-Serif" font-size="10.00">1</text>
</g>
<!-- remora.cli&#45;&gt;remora.adapters -->
<g id="edge3" class="edge">
<title>remora.cli&#45;&gt;remora.adapters</title>
<path fill="none" stroke="#94a3b8" d="M543.86,-276.62C586.19,-304.12 661.37,-352.57 675,-358.72 691.88,-366.34 710.9,-372.74 728.59,-377.86"/>
<polygon fill="#94a3b8" stroke="#94a3b8" points="727.78,-380.54 736.24,-380.01 729.29,-375.15 727.78,-380.54"/>
<text text-anchor="middle" x="647" y="-345.98" font-family="Helvetica,sans-Serif" font-size="10.00">1</text>
</g>
<!-- remora.core -->
<g id="node5" class="node">
<title>remora.core</title>
<path fill="#fee2e2" stroke="#b91c1c" stroke-width="2.1" d="M1723,-371.72C1723,-371.72 1573.5,-371.72 1573.5,-371.72 1567.5,-371.72 1561.5,-365.72 1561.5,-359.72 1561.5,-359.72 1561.5,-347.72 1561.5,-347.72 1561.5,-341.72 1567.5,-335.72 1573.5,-335.72 1573.5,-335.72 1723,-335.72 1723,-335.72 1729,-335.72 1735,-341.72 1735,-347.72 1735,-347.72 1735,-359.72 1735,-359.72 1735,-365.72 1729,-371.72 1723,-371.72"/>
<text text-anchor="middle" x="1648.25" y="-356.77" font-family="Helvetica,sans-Serif" font-size="11.00" fill="#7f1d1d">remora.core</text>
<text text-anchor="middle" x="1648.25" y="-343.27" font-family="Helvetica,sans-Serif" font-size="11.00" fill="#7f1d1d">(in=59, out=12, degree=71)</text>
</g>
<!-- remora.cli&#45;&gt;remora.core -->
<g id="edge4" class="edge">
<title>remora.cli&#45;&gt;remora.core</title>
<path fill="none" stroke="#dc2626" stroke-width="1.9" d="M557.81,-276.64C579.07,-288.02 603.45,-304.46 619,-325.72 643.51,-359.23 629.68,-376.76 644,-415.72 684.06,-524.75 674.97,-631.72 791.12,-631.72 791.12,-631.72 791.12,-631.72 1391.62,-631.72 1460.04,-631.72 1485.52,-625.34 1536.5,-579.72 1597.09,-525.51 1628.11,-430.7 1640.54,-382.96"/>
<polygon fill="#dc2626" stroke="#dc2626" stroke-width="1.9" points="1643.25,-383.66 1642.48,-375.22 1637.82,-382.3 1643.25,-383.66"/>
<text text-anchor="middle" x="1092.5" y="-634.97" font-family="Helvetica,sans-Serif" font-size="10.00" fill="#7f1d1d">8</text>
</g>
<!-- remora.extensions -->
<g id="node6" class="node">
<title>remora.extensions</title>
<path fill="#f8fafc" stroke="#475569" d="M1438.38,-167.72C1438.38,-167.72 1342.88,-167.72 1342.88,-167.72 1336.88,-167.72 1330.88,-161.72 1330.88,-155.72 1330.88,-155.72 1330.88,-143.72 1330.88,-143.72 1330.88,-137.72 1336.88,-131.72 1342.88,-131.72 1342.88,-131.72 1438.38,-131.72 1438.38,-131.72 1444.38,-131.72 1450.38,-137.72 1450.38,-143.72 1450.38,-143.72 1450.38,-155.72 1450.38,-155.72 1450.38,-161.72 1444.38,-167.72 1438.38,-167.72"/>
<text text-anchor="middle" x="1390.62" y="-146.02" font-family="Helvetica,sans-Serif" font-size="11.00">remora.extensions</text>
</g>
<!-- remora.cli&#45;&gt;remora.extensions -->
<g id="edge5" class="edge">
<title>remora.cli&#45;&gt;remora.extensions</title>
<path fill="none" stroke="#94a3b8" d="M598.14,-252.49C678.08,-247.05 802.14,-237.55 909.25,-224.72 1056.72,-207.06 1228.41,-178.25 1321.36,-161.95"/>
<polygon fill="#94a3b8" stroke="#94a3b8" points="1321.76,-164.73 1329.16,-160.58 1320.8,-159.21 1321.76,-164.73"/>
<text text-anchor="middle" x="937.25" y="-224.27" font-family="Helvetica,sans-Serif" font-size="10.00">1</text>
</g>
<!-- remora.lsp -->
<g id="node7" class="node">
<title>remora.lsp</title>
<path fill="#fee2e2" stroke="#b91c1c" stroke-width="2.1" d="M863.5,-56.72C863.5,-56.72 720.75,-56.72 720.75,-56.72 714.75,-56.72 708.75,-50.72 708.75,-44.72 708.75,-44.72 708.75,-32.72 708.75,-32.72 708.75,-26.72 714.75,-20.72 720.75,-20.72 720.75,-20.72 863.5,-20.72 863.5,-20.72 869.5,-20.72 875.5,-26.72 875.5,-32.72 875.5,-32.72 875.5,-44.72 875.5,-44.72 875.5,-50.72 869.5,-56.72 863.5,-56.72"/>
<text text-anchor="middle" x="792.12" y="-41.77" font-family="Helvetica,sans-Serif" font-size="11.00" fill="#7f1d1d">remora.lsp</text>
<text text-anchor="middle" x="792.12" y="-28.27" font-family="Helvetica,sans-Serif" font-size="11.00" fill="#7f1d1d">(in=1, out=22, degree=23)</text>
</g>
<!-- remora.cli&#45;&gt;remora.lsp -->
<g id="edge6" class="edge">
<title>remora.cli&#45;&gt;remora.lsp</title>
<path fill="none" stroke="#94a3b8" d="M524.47,-238.98C542.98,-204.59 586.92,-131.15 644,-89.97 661.01,-77.7 681.2,-68.17 701.1,-60.83"/>
<polygon fill="#94a3b8" stroke="#94a3b8" points="701.87,-63.53 708.48,-58.22 700,-58.25 701.87,-63.53"/>
<text text-anchor="middle" x="647" y="-93.22" font-family="Helvetica,sans-Serif" font-size="10.00">1</text>
</g>
<!-- remora.runner -->
<g id="node9" class="node">
<title>remora.runner</title>
<path fill="#fee2e2" stroke="#b91c1c" stroke-width="2.1" d="M1160.5,-132.72C1160.5,-132.72 1024.5,-132.72 1024.5,-132.72 1018.5,-132.72 1012.5,-126.72 1012.5,-120.72 1012.5,-120.72 1012.5,-108.72 1012.5,-108.72 1012.5,-102.72 1018.5,-96.72 1024.5,-96.72 1024.5,-96.72 1160.5,-96.72 1160.5,-96.72 1166.5,-96.72 1172.5,-102.72 1172.5,-108.72 1172.5,-108.72 1172.5,-120.72 1172.5,-120.72 1172.5,-126.72 1166.5,-132.72 1160.5,-132.72"/>
<text text-anchor="middle" x="1092.5" y="-117.77" font-family="Helvetica,sans-Serif" font-size="11.00" fill="#7f1d1d">remora.runner</text>
<text text-anchor="middle" x="1092.5" y="-104.27" font-family="Helvetica,sans-Serif" font-size="11.00" fill="#7f1d1d">(in=6, out=8, degree=14)</text>
</g>
<!-- remora.cli&#45;&gt;remora.runner -->
<g id="edge7" class="edge">
<title>remora.cli&#45;&gt;remora.runner</title>
<path fill="none" stroke="#94a3b8" d="M533.55,-239.07C561.53,-212.5 617.21,-164.67 675,-143.97 782.82,-105.36 916.19,-103.27 1002.51,-107.32"/>
<polygon fill="#94a3b8" stroke="#94a3b8" points="1002.12,-110.11 1010.25,-107.71 1002.4,-104.51 1002.12,-110.11"/>
<text text-anchor="middle" x="792.12" y="-147.22" font-family="Helvetica,sans-Serif" font-size="10.00">1</text>
</g>
<!-- remora.cli&#45;&gt;remora.service -->
<g id="edge8" class="edge">
<title>remora.cli&#45;&gt;remora.service</title>
<path fill="none" stroke="#94a3b8" d="M553.07,-276.69C574.35,-288.62 600.25,-305.57 619,-325.72 653.96,-363.3 630.77,-400.67 675,-426.72 789.02,-493.88 952.28,-450.99 1036.53,-420.87"/>
<polygon fill="#94a3b8" stroke="#94a3b8" points="1037.44,-423.52 1044,-418.15 1035.52,-418.26 1037.44,-423.52"/>
<text text-anchor="middle" x="792.12" y="-465.62" font-family="Helvetica,sans-Serif" font-size="10.00">1</text>
</g>
<!-- remora.workspace -->
<g id="node13" class="node">
<title>remora.workspace</title>
<path fill="#f8fafc" stroke="#475569" d="M839.12,-208.72C839.12,-208.72 745.12,-208.72 745.12,-208.72 739.12,-208.72 733.12,-202.72 733.12,-196.72 733.12,-196.72 733.12,-184.72 733.12,-184.72 733.12,-178.72 739.12,-172.72 745.12,-172.72 745.12,-172.72 839.12,-172.72 839.12,-172.72 845.12,-172.72 851.12,-178.72 851.12,-184.72 851.12,-184.72 851.12,-196.72 851.12,-196.72 851.12,-202.72 845.12,-208.72 839.12,-208.72"/>
<text text-anchor="middle" x="792.12" y="-187.02" font-family="Helvetica,sans-Serif" font-size="11.00">remora.workspace</text>
</g>
<!-- remora.cli&#45;&gt;remora.workspace -->
<g id="edge9" class="edge">
<title>remora.cli&#45;&gt;remora.workspace</title>
<path fill="none" stroke="#94a3b8" d="M575.66,-238.75C597.14,-232.37 621.54,-225.48 644,-219.97 669.91,-213.62 698.63,-207.67 723.78,-202.82"/>
<polygon fill="#94a3b8" stroke="#94a3b8" points="724.05,-205.62 731.38,-201.36 723,-200.12 724.05,-205.62"/>
<text text-anchor="middle" x="647" y="-223.22" font-family="Helvetica,sans-Serif" font-size="10.00">4</text>
</g>
<!-- remora.companion -->
<g id="node4" class="node">
<title>remora.companion</title>
<path fill="#f8fafc" stroke="#475569" d="M1438.38,-516.72C1438.38,-516.72 1342.88,-516.72 1342.88,-516.72 1336.88,-516.72 1330.88,-510.72 1330.88,-504.72 1330.88,-504.72 1330.88,-492.72 1330.88,-492.72 1330.88,-486.72 1336.88,-480.72 1342.88,-480.72 1342.88,-480.72 1438.38,-480.72 1438.38,-480.72 1444.38,-480.72 1450.38,-486.72 1450.38,-492.72 1450.38,-492.72 1450.38,-504.72 1450.38,-504.72 1450.38,-510.72 1444.38,-516.72 1438.38,-516.72"/>
<text text-anchor="middle" x="1390.62" y="-495.02" font-family="Helvetica,sans-Serif" font-size="11.00">remora.companion</text>
</g>
<!-- remora.companion&#45;&gt;remora.core -->
<g id="edge10" class="edge">
<title>remora.companion&#45;&gt;remora.core</title>
<path fill="none" stroke="#dc2626" stroke-width="1.9" d="M1450.57,-489.27C1477.93,-483.21 1510.14,-473.61 1536.5,-458.72 1572.05,-438.65 1604.92,-404.7 1625.47,-380.85"/>
<polygon fill="#dc2626" stroke="#dc2626" stroke-width="1.9" points="1627.58,-382.69 1630.61,-374.77 1623.31,-379.07 1627.58,-382.69"/>
<text text-anchor="middle" x="1530.5" y="-467.61" font-family="Helvetica,sans-Serif" font-size="10.00" fill="#7f1d1d">12</text>
</g>
<!-- remora.utils -->
<g id="node12" class="node">
<title>remora.utils</title>
<path fill="#f8fafc" stroke="#475569" d="M1867.75,-477.72C1867.75,-477.72 1809,-477.72 1809,-477.72 1803,-477.72 1797,-471.72 1797,-465.72 1797,-465.72 1797,-453.72 1797,-453.72 1797,-447.72 1803,-441.72 1809,-441.72 1809,-441.72 1867.75,-441.72 1867.75,-441.72 1873.75,-441.72 1879.75,-447.72 1879.75,-453.72 1879.75,-453.72 1879.75,-465.72 1879.75,-465.72 1879.75,-471.72 1873.75,-477.72 1867.75,-477.72"/>
<text text-anchor="middle" x="1838.38" y="-456.02" font-family="Helvetica,sans-Serif" font-size="11.00">remora.utils</text>
</g>
<!-- remora.core&#45;&gt;remora.utils -->
<g id="edge11" class="edge">
<title>remora.core&#45;&gt;remora.utils</title>
<path fill="none" stroke="#dc2626" stroke-width="1.9" d="M1682.88,-372.67C1714.38,-390.42 1761.54,-416.99 1795.47,-436.11"/>
<polygon fill="#dc2626" stroke="#dc2626" stroke-width="1.9" points="1793.81,-438.39 1802.16,-439.88 1796.56,-433.51 1793.81,-438.39"/>
<text text-anchor="middle" x="1766" y="-425.66" font-family="Helvetica,sans-Serif" font-size="10.00" fill="#7f1d1d">12</text>
</g>
<!-- remora.lsp&#45;&gt;remora.core -->
<g id="edge12" class="edge">
<title>remora.lsp&#45;&gt;remora.core</title>
<path fill="none" stroke="#dc2626" stroke-width="1.9" d="M876.31,-22.04C1014.75,1.29 1297.18,29.68 1499.5,-77.72 1593.98,-127.88 1630.52,-264.05 1642.36,-324.33"/>
<polygon fill="#dc2626" stroke="#dc2626" stroke-width="1.9" points="1639.6,-324.82 1643.82,-332.17 1645.11,-323.79 1639.6,-324.82"/>
<text text-anchor="middle" x="1250.75" y="-10.42" font-family="Helvetica,sans-Serif" font-size="10.00" fill="#7f1d1d">16</text>
</g>
<!-- remora.lsp&#45;&gt;remora.extensions -->
<g id="edge13" class="edge">
<title>remora.lsp&#45;&gt;remora.extensions</title>
<path fill="none" stroke="#94a3b8" d="M876.45,-32.42C964.18,-28.53 1105.21,-30.1 1219.75,-67.97 1250.83,-78.25 1252.58,-92.88 1281.75,-107.72 1296.12,-115.04 1312.09,-121.89 1327.23,-127.86"/>
<polygon fill="#94a3b8" stroke="#94a3b8" points="1326.15,-130.44 1334.62,-130.72 1328.17,-125.22 1326.15,-130.44"/>
<text text-anchor="middle" x="1092.5" y="-71.22" font-family="Helvetica,sans-Serif" font-size="10.00">1</text>
</g>
<!-- remora.lsp&#45;&gt;remora.runner -->
<g id="edge14" class="edge">
<title>remora.lsp&#45;&gt;remora.runner</title>
<path fill="none" stroke="#94a3b8" d="M867.65,-57.7C910.36,-68.58 964.08,-82.27 1008.18,-93.5"/>
<polygon fill="#94a3b8" stroke="#94a3b8" points="1007.24,-96.15 1015.69,-95.41 1008.62,-90.72 1007.24,-96.15"/>
<text text-anchor="middle" x="937.25" y="-78.83" font-family="Helvetica,sans-Serif" font-size="10.00">5</text>
</g>
<!-- remora.models -->
<g id="node8" class="node">
<title>remora.models</title>
<path fill="#f8fafc" stroke="#475569" d="M1428.25,-235.72C1428.25,-235.72 1353,-235.72 1353,-235.72 1347,-235.72 1341,-229.72 1341,-223.72 1341,-223.72 1341,-211.72 1341,-211.72 1341,-205.72 1347,-199.72 1353,-199.72 1353,-199.72 1428.25,-199.72 1428.25,-199.72 1434.25,-199.72 1440.25,-205.72 1440.25,-211.72 1440.25,-211.72 1440.25,-223.72 1440.25,-223.72 1440.25,-229.72 1434.25,-235.72 1428.25,-235.72"/>
<text text-anchor="middle" x="1390.62" y="-214.02" font-family="Helvetica,sans-Serif" font-size="11.00">remora.models</text>
</g>
<!-- remora.models&#45;&gt;remora.core -->
<g id="edge15" class="edge">
<title>remora.models&#45;&gt;remora.core</title>
<path fill="none" stroke="#94a3b8" d="M1440.61,-229.8C1459.5,-235.32 1480.98,-242.67 1499.5,-251.72 1543.2,-273.09 1588.52,-306.31 1617.26,-328.99"/>
<polygon fill="#94a3b8" stroke="#94a3b8" points="1615.36,-331.06 1623.36,-333.86 1618.85,-326.68 1615.36,-331.06"/>
<text text-anchor="middle" x="1530.5" y="-273.84" font-family="Helvetica,sans-Serif" font-size="10.00">1</text>
</g>
<!-- remora.runner&#45;&gt;remora.core -->
<g id="edge16" class="edge">
<title>remora.runner&#45;&gt;remora.core</title>
<path fill="none" stroke="#94a3b8" d="M1173.19,-102.8C1275.39,-89.14 1445.85,-72.32 1499.5,-102.97 1584.96,-151.81 1625.91,-271.52 1640.61,-325.96"/>
<polygon fill="#94a3b8" stroke="#94a3b8" points="1637.86,-326.53 1642.59,-333.57 1643.28,-325.12 1637.86,-326.53"/>
<text text-anchor="middle" x="1390.62" y="-106.22" font-family="Helvetica,sans-Serif" font-size="10.00">7</text>
</g>
<!-- remora.runner&#45;&gt;remora.extensions -->
<g id="edge17" class="edge">
<title>remora.runner&#45;&gt;remora.extensions</title>
<path fill="none" stroke="#94a3b8" d="M1173.25,-124.15C1219.46,-129.61 1277.06,-136.42 1321.21,-141.64"/>
<polygon fill="#94a3b8" stroke="#94a3b8" points="1320.64,-144.39 1328.91,-142.55 1321.29,-138.83 1320.64,-144.39"/>
<text text-anchor="middle" x="1250.75" y="-136.52" font-family="Helvetica,sans-Serif" font-size="10.00">1</text>
</g>
<!-- remora.service&#45;&gt;remora.core -->
<g id="edge18" class="edge">
<title>remora.service&#45;&gt;remora.core</title>
<path fill="none" stroke="#dc2626" stroke-width="1.9" d="M1176.68,-401.29C1259.01,-402.69 1388.46,-401.86 1499.5,-387.72 1521.71,-384.89 1545.48,-380.19 1567.32,-375.17"/>
<polygon fill="#dc2626" stroke="#dc2626" stroke-width="1.9" points="1567.92,-377.91 1575.07,-373.35 1566.64,-372.45 1567.92,-377.91"/>
<text text-anchor="middle" x="1390.62" y="-404.6" font-family="Helvetica,sans-Serif" font-size="10.00" fill="#7f1d1d">14</text>
</g>
<!-- remora.service&#45;&gt;remora.extensions -->
<g id="edge19" class="edge">
<title>remora.service&#45;&gt;remora.extensions</title>
<path fill="none" stroke="#94a3b8" d="M1126.59,-379.83C1163.54,-357.09 1222.61,-315.56 1256.75,-264.72 1277.76,-233.45 1255.19,-210.44 1281.75,-183.72 1292.69,-172.72 1307.14,-165.27 1321.91,-160.23"/>
<polygon fill="#94a3b8" stroke="#94a3b8" points="1322.36,-163.02 1329.17,-157.98 1320.7,-157.67 1322.36,-163.02"/>
<text text-anchor="middle" x="1250.75" y="-281.76" font-family="Helvetica,sans-Serif" font-size="10.00">1</text>
</g>
<!-- remora.service&#45;&gt;remora.models -->
<g id="edge20" class="edge">
<title>remora.service&#45;&gt;remora.models</title>
<path fill="none" stroke="#94a3b8" d="M1153.38,-379.86C1187.57,-366.43 1229.02,-345.3 1256.75,-314.72 1276.99,-292.41 1259.69,-272.24 1281.75,-251.72 1295.4,-239.02 1313.77,-231.07 1331.47,-226.08"/>
<polygon fill="#94a3b8" stroke="#94a3b8" points="1332.12,-228.81 1339.17,-224.11 1330.73,-223.38 1332.12,-228.81"/>
<text text-anchor="middle" x="1250.75" y="-328.46" font-family="Helvetica,sans-Serif" font-size="10.00">2</text>
</g>
<!-- remora.ui -->
<g id="node11" class="node">
<title>remora.ui</title>
<path fill="#f8fafc" stroke="#475569" d="M1413.25,-303.72C1413.25,-303.72 1368,-303.72 1368,-303.72 1362,-303.72 1356,-297.72 1356,-291.72 1356,-291.72 1356,-279.72 1356,-279.72 1356,-273.72 1362,-267.72 1368,-267.72 1368,-267.72 1413.25,-267.72 1413.25,-267.72 1419.25,-267.72 1425.25,-273.72 1425.25,-279.72 1425.25,-279.72 1425.25,-291.72 1425.25,-291.72 1425.25,-297.72 1419.25,-303.72 1413.25,-303.72"/>
<text text-anchor="middle" x="1390.62" y="-282.02" font-family="Helvetica,sans-Serif" font-size="11.00">remora.ui</text>
</g>
<!-- remora.service&#45;&gt;remora.ui -->
<g id="edge21" class="edge">
<title>remora.service&#45;&gt;remora.ui</title>
<path fill="none" stroke="#94a3b8" d="M1176.77,-395.14C1204.32,-390.56 1233.78,-381.63 1256.75,-364.72 1275.18,-351.16 1264.02,-334.19 1281.75,-319.72 1300.17,-304.69 1325.3,-296.27 1346.67,-291.57"/>
<polygon fill="#94a3b8" stroke="#94a3b8" points="1347.1,-294.34 1354.39,-290.02 1346,-288.85 1347.1,-294.34"/>
<text text-anchor="middle" x="1250.75" y="-375.31" font-family="Helvetica,sans-Serif" font-size="10.00">4</text>
</g>
<!-- remora.service&#45;&gt;remora.utils -->
<g id="edge22" class="edge">
<title>remora.service&#45;&gt;remora.utils</title>
<path fill="none" stroke="#94a3b8" d="M1138.71,-417.64C1163.85,-429.28 1194.97,-445.62 1219.75,-464.72 1252.14,-489.69 1244.34,-516.2 1281.75,-532.72 1457.13,-610.15 1691.72,-525.13 1790.46,-481.87"/>
<polygon fill="#94a3b8" stroke="#94a3b8" points="1791.46,-484.49 1797.64,-478.68 1789.19,-479.37 1791.46,-484.49"/>
<text text-anchor="middle" x="1530.5" y="-562" font-family="Helvetica,sans-Serif" font-size="10.00">2</text>
</g>
<!-- remora.ui&#45;&gt;remora.core -->
<g id="edge23" class="edge">
<title>remora.ui&#45;&gt;remora.core</title>
<path fill="none" stroke="#94a3b8" d="M1425.57,-294.75C1461.42,-304.29 1519.24,-319.67 1566.83,-332.33"/>
<polygon fill="#94a3b8" stroke="#94a3b8" points="1565.99,-335 1574.44,-334.35 1567.43,-329.59 1565.99,-335"/>
<text text-anchor="middle" x="1530.5" y="-327.04" font-family="Helvetica,sans-Serif" font-size="10.00">1</text>
</g>
<!-- legend_hot_pkg -->
<g id="node14" class="node">
<title>legend_hot_pkg</title>
<path fill="#fee2e2" stroke="#b91c1c" stroke-width="2.1" d="M168.62,-377.72C168.62,-377.72 31.12,-377.72 31.12,-377.72 25.12,-377.72 19.12,-371.72 19.12,-365.72 19.12,-365.72 19.12,-353.72 19.12,-353.72 19.12,-347.72 25.12,-341.72 31.12,-341.72 31.12,-341.72 168.62,-341.72 168.62,-341.72 174.62,-341.72 180.62,-347.72 180.62,-353.72 180.62,-353.72 180.62,-365.72 180.62,-365.72 180.62,-371.72 174.62,-377.72 168.62,-377.72"/>
<text text-anchor="middle" x="99.88" y="-356.02" font-family="Helvetica,sans-Serif" font-size="11.00" fill="#7f1d1d">Hot package (high in+out)</text>
</g>
<!-- legend_pkg -->
<g id="node15" class="node">
<title>legend_pkg</title>
<path fill="#f8fafc" stroke="#475569" d="M532.38,-418.72C532.38,-418.72 495.38,-418.72 495.38,-418.72 489.38,-418.72 483.38,-412.72 483.38,-406.72 483.38,-406.72 483.38,-394.72 483.38,-394.72 483.38,-388.72 489.38,-382.72 495.38,-382.72 495.38,-382.72 532.38,-382.72 532.38,-382.72 538.38,-382.72 544.38,-388.72 544.38,-394.72 544.38,-394.72 544.38,-406.72 544.38,-406.72 544.38,-412.72 538.38,-418.72 532.38,-418.72"/>
<text text-anchor="middle" x="513.88" y="-397.02" font-family="Helvetica,sans-Serif" font-size="11.00">Package</text>
</g>
<!-- legend_hot_pkg&#45;&gt;legend_pkg -->
<g id="edge24" class="edge">
<title>legend_hot_pkg&#45;&gt;legend_pkg</title>
<path fill="none" stroke="#94a3b8" d="M181.29,-367.73C269.46,-376.5 407.25,-390.21 474.01,-396.86"/>
<polygon fill="#94a3b8" stroke="#94a3b8" points="473.59,-399.63 481.83,-397.63 474.14,-394.05 473.59,-399.63"/>
<text text-anchor="middle" x="304.25" y="-390.71" font-family="Helvetica,sans-Serif" font-size="10.00">edge label = module edge count</text>
</g>
<!-- legend_hot_edge_a -->
<g id="node16" class="node">
<title>legend_hot_edge_a</title>
<path fill="#fff7ed" stroke="#c2410c" d="M149.5,-445.72C149.5,-445.72 50.25,-445.72 50.25,-445.72 44.25,-445.72 38.25,-439.72 38.25,-433.72 38.25,-433.72 38.25,-421.72 38.25,-421.72 38.25,-415.72 44.25,-409.72 50.25,-409.72 50.25,-409.72 149.5,-409.72 149.5,-409.72 155.5,-409.72 161.5,-415.72 161.5,-421.72 161.5,-421.72 161.5,-433.72 161.5,-433.72 161.5,-439.72 155.5,-445.72 149.5,-445.72"/>
<text text-anchor="middle" x="99.88" y="-424.02" font-family="Helvetica,sans-Serif" font-size="11.00" fill="#7c2d12">High&#45;pressure edge</text>
</g>
<!-- legend_hot_edge_a&#45;&gt;legend_pkg -->
<g id="edge25" class="edge">
<title>legend_hot_edge_a&#45;&gt;legend_pkg</title>
<path fill="none" stroke="#dc2626" d="M161.67,-423.74C247.46,-418.12 401.63,-408.01 473.72,-403.29"/>
<polygon fill="#dc2626" stroke="#dc2626" points="473.61,-406.1 481.41,-402.78 473.24,-400.51 473.61,-406.1"/>
<text text-anchor="middle" x="304.25" y="-422.24" font-family="Helvetica,sans-Serif" font-size="10.00" fill="#7f1d1d">highlighted = top 5</text>
</g>
<!-- pressure_1 -->
<g id="node17" class="node">
<title>pressure_1</title>
<polygon fill="#fff7ed" stroke="#c2410c" points="613,-56.72 408.75,-56.72 408.75,-20.72 619,-20.72 619,-50.72 613,-56.72"/>
<polyline fill="none" stroke="#c2410c" points="613,-56.72 613,-50.72"/>
<polyline fill="none" stroke="#c2410c" points="619,-50.72 613,-50.72"/>
<text text-anchor="middle" x="513.88" y="-35.02" font-family="Helvetica,sans-Serif" font-size="11.00" fill="#7c2d12">P1: remora.lsp &#45;&gt; remora.core (16)</text>
</g>
<!-- pressure_1&#45;&gt;remora.lsp -->
<g id="edge26" class="edge">
<title>pressure_1&#45;&gt;remora.lsp</title>
<path fill="none" stroke="#c2410c" stroke-width="1.1" stroke-dasharray="5,2" d="M619.31,-38.72C645.33,-38.72 673.04,-38.72 698.44,-38.72"/>
<polygon fill="#c2410c" stroke="#c2410c" stroke-width="1.1" points="698.39,-41.52 706.39,-38.72 698.39,-35.92 698.39,-41.52"/>
</g>
<!-- pressure_2 -->
<g id="node18" class="node">
<title>pressure_2</title>
<polygon fill="#fff7ed" stroke="#c2410c" points="903.25,-342.72 675,-342.72 675,-306.72 909.25,-306.72 909.25,-336.72 903.25,-342.72"/>
<polyline fill="none" stroke="#c2410c" points="903.25,-342.72 903.25,-336.72"/>
<polyline fill="none" stroke="#c2410c" points="909.25,-336.72 903.25,-336.72"/>
<text text-anchor="middle" x="792.12" y="-321.02" font-family="Helvetica,sans-Serif" font-size="11.00" fill="#7c2d12">P2: remora.service &#45;&gt; remora.core (14)</text>
</g>
<!-- pressure_2&#45;&gt;remora.service -->
<g id="edge27" class="edge">
<title>pressure_2&#45;&gt;remora.service</title>
<path fill="none" stroke="#c2410c" stroke-width="1.1" stroke-dasharray="5,2" d="M867.65,-343.2C909.63,-353.62 962.23,-366.66 1005.9,-377.49"/>
<polygon fill="#c2410c" stroke="#c2410c" stroke-width="1.1" points="1005.02,-380.16 1013.46,-379.37 1006.37,-374.72 1005.02,-380.16"/>
</g>
<!-- pressure_3 -->
<g id="node19" class="node">
<title>pressure_3</title>
<polygon fill="#fff7ed" stroke="#c2410c" points="1493.5,-371.72 1281.75,-371.72 1281.75,-335.72 1499.5,-335.72 1499.5,-365.72 1493.5,-371.72"/>
<polyline fill="none" stroke="#c2410c" points="1493.5,-371.72 1493.5,-365.72"/>
<polyline fill="none" stroke="#c2410c" points="1499.5,-365.72 1493.5,-365.72"/>
<text text-anchor="middle" x="1390.62" y="-350.02" font-family="Helvetica,sans-Serif" font-size="11.00" fill="#7c2d12">P3: remora.core &#45;&gt; remora.utils (12)</text>
</g>
<!-- pressure_3&#45;&gt;remora.core -->
<g id="edge28" class="edge">
<title>pressure_3&#45;&gt;remora.core</title>
<path fill="none" stroke="#c2410c" stroke-width="1.1" stroke-dasharray="5,2" d="M1499.66,-353.72C1516.79,-353.72 1534.41,-353.72 1551.24,-353.72"/>
<polygon fill="#c2410c" stroke="#c2410c" stroke-width="1.1" points="1550.84,-356.52 1558.84,-353.72 1550.84,-350.92 1550.84,-356.52"/>
</g>
<!-- pressure_4 -->
<g id="node20" class="node">
<title>pressure_4</title>
<polygon fill="#fff7ed" stroke="#c2410c" points="1213.75,-516.72 965.25,-516.72 965.25,-480.72 1219.75,-480.72 1219.75,-510.72 1213.75,-516.72"/>
<polyline fill="none" stroke="#c2410c" points="1213.75,-516.72 1213.75,-510.72"/>
<polyline fill="none" stroke="#c2410c" points="1219.75,-510.72 1213.75,-510.72"/>
<text text-anchor="middle" x="1092.5" y="-495.02" font-family="Helvetica,sans-Serif" font-size="11.00" fill="#7c2d12">P4: remora.companion &#45;&gt; remora.core (12)</text>
</g>
<!-- pressure_4&#45;&gt;remora.companion -->
<g id="edge29" class="edge">
<title>pressure_4&#45;&gt;remora.companion</title>
<path fill="none" stroke="#c2410c" stroke-width="1.1" stroke-dasharray="5,2" d="M1219.94,-498.72C1254.7,-498.72 1291.07,-498.72 1321.19,-498.72"/>
<polygon fill="#c2410c" stroke="#c2410c" stroke-width="1.1" points="1321.08,-501.52 1329.07,-498.72 1321.07,-495.92 1321.08,-501.52"/>
</g>
<!-- pressure_5 -->
<g id="node21" class="node">
<title>pressure_5</title>
<polygon fill="#fff7ed" stroke="#c2410c" points="193.75,-241.72 0,-241.72 0,-205.72 199.75,-205.72 199.75,-235.72 193.75,-241.72"/>
<polyline fill="none" stroke="#c2410c" points="193.75,-241.72 193.75,-235.72"/>
<polyline fill="none" stroke="#c2410c" points="199.75,-235.72 193.75,-235.72"/>
<text text-anchor="middle" x="99.88" y="-220.02" font-family="Helvetica,sans-Serif" font-size="11.00" fill="#7c2d12">P5: remora.cli &#45;&gt; remora.core (8)</text>
</g>
<!-- pressure_5&#45;&gt;remora.cli -->
<g id="edge30" class="edge">
<title>pressure_5&#45;&gt;remora.cli</title>
<path fill="none" stroke="#c2410c" stroke-width="1.1" stroke-dasharray="5,2" d="M200.08,-231.91C267.03,-237.43 354.78,-244.68 420.29,-250.08"/>
<polygon fill="#c2410c" stroke="#c2410c" stroke-width="1.1" points="419.93,-252.86 428.13,-250.73 420.39,-247.28 419.93,-252.86"/>
</g>
</g>
</svg>
